<?xml version="1.0" encoding="iso-8859-1"?>
<!-- Generator: Adobe Illustrator 19.0.0, SVG Export Plug-In . SVG Version: 6.00 Build 0)  -->
<svg version="1.1" id="Capa_1" xmlns="http://www.w3.org/2000/svg" xmlns:xlink="http://www.w3.org/1999/xlink" x="0px" y="0px"
	 viewBox="0 0 511.999 511.999" style="enable-background:new 0 0 511.999 511.999;" xml:space="preserve">
<linearGradient id="SVGID_1_" gradientUnits="userSpaceOnUse" x1="256.0668" y1="477.4128" x2="256.0668" y2="38.4118" gradientTransform="matrix(0.9998 0 0 -0.9998 -0.0108 513.855)">
	<stop  offset="0" style="stop-color:#2AF598"/>
	<stop  offset="1" style="stop-color:#009EFD"/>
</linearGradient>
<path style="fill:url(#SVGID_1_);" d="M445.683,475.452H66.318c-24.346,0-45.957-12.694-57.811-33.959
	c-11.854-21.264-11.291-46.322,1.51-67.03L199.704,67.928l-0.006,0.009c12.148-19.655,33.196-31.389,56.302-31.389
	s44.153,11.733,56.302,31.389l189.676,306.517c12.806,20.717,13.37,45.775,1.516,67.039
	C491.638,462.757,470.027,475.452,445.683,475.452z M256,76.54c-9.282,0-17.404,4.528-22.284,12.424l-0.006,0.009L44.028,395.498
	c-5.061,8.186-5.284,18.105-0.592,26.521s13.246,13.44,22.882,13.44h379.363c9.636,0,18.189-5.024,22.882-13.44
	s4.469-18.335-0.598-26.53L278.29,88.972C273.405,81.068,265.282,76.54,256,76.54z M275.996,360.477h-39.991v39.991h39.991V360.477z
	 M275.996,163.52h-39.991v156.965h39.991V163.52z"/>
<g>
</g>
<g>
</g>
<g>
</g>
<g>
</g>
<g>
</g>
<g>
</g>
<g>
</g>
<g>
</g>
<g>
</g>
<g>
</g>
<g>
</g>
<g>
</g>
<g>
</g>
<g>
</g>
<g>
</g>
</svg>
