<?xml version="1.0" encoding="iso-8859-1"?>
<!-- Generator: Adobe Illustrator 19.0.0, SVG Export Plug-In . SVG Version: 6.00 Build 0)  -->
<svg version="1.1" id="Capa_1" xmlns="http://www.w3.org/2000/svg" xmlns:xlink="http://www.w3.org/1999/xlink" x="0px" y="0px"
	 viewBox="0 0 512 512" style="enable-background:new 0 0 512 512;" xml:space="preserve">
<g>
	<g>
		<g>
			<path d="M504.5,159.769c4.142,0,7.5-3.357,7.5-7.5v-75.04c0-35.86-29.174-65.034-65.034-65.034H65.034
				C29.174,12.193,0,41.368,0,77.229v357.543c0,35.86,29.174,65.034,65.034,65.034h381.932c35.86,0,65.034-29.174,65.034-65.034
				V187.45c0-4.143-3.358-7.5-7.5-7.5c-4.142,0-7.5,3.357-7.5,7.5v90.636h-54.268c-0.249-9.851-1.044-19.877-2.405-30.067
				c-4.347-32.562-28.568-65.525-66.451-65.525c-35.565,0-61.653,25.757-66.462,65.618c-1.341,11.11-1.095,20.856,0.021,29.974
				h-102.87c1.116-9.118,1.362-18.864,0.021-29.974c-4.81-39.861-30.897-65.618-66.462-65.618
				c-37.883,0-62.104,32.963-66.451,65.525c-1.36,10.19-2.155,20.216-2.405,30.067H15V77.229c0-27.589,22.445-50.034,50.034-50.034
				h381.932C474.555,27.193,497,49.64,497,77.229v75.04C497,156.411,500.358,159.769,504.5,159.769z M497,434.771
				c0,27.589-22.445,50.034-50.034,50.034h-16.625c3.526-35.124,31.536-63.133,66.659-66.659V434.771z M331.625,317.831
				c-1.034-4.345-2.109-8.507-3.149-12.531c-4.702-18.198-8.762-33.916-6.171-55.392c3.901-32.331,23.662-52.415,51.571-52.415
				c29.263,0,48.099,26.415,51.583,52.509c5.241,39.262,1.758,75.847-10.351,108.739c-9.472,25.73-23.911,48.681-42.918,68.219
				c-5.84,5.822-13.595,9.027-21.843,9.027c-17.06,0-30.939-13.88-30.939-30.94c0-11.25,3.271-21.55,6.734-32.454
				C331.346,356.206,336.727,339.263,331.625,317.831z M86.541,250.003c3.483-26.094,22.32-52.509,51.583-52.509
				c27.909,0,47.67,20.084,51.571,52.415c2.591,21.476-1.469,37.193-6.171,55.392c-1.04,4.024-2.115,8.186-3.149,12.531
				c-5.101,21.432,0.28,38.375,5.484,54.762c3.463,10.904,6.734,21.204,6.734,32.454c0,17.06-13.879,30.94-30.939,30.94
				c-8.247,0-16.003-3.205-21.843-9.027c-19.007-19.538-33.446-42.489-42.918-68.219C84.783,325.849,81.3,289.265,86.541,250.003z
				 M69.321,293.086c0.822,24.938,5.323,48.643,13.495,70.839c10.209,27.73,25.78,52.472,46.281,73.536
				c0.023,0.023,0.047,0.048,0.071,0.072c8.677,8.677,20.213,13.455,32.484,13.455c25.331,0,45.939-20.608,45.939-45.94
				c0-13.574-3.781-25.48-7.438-36.994c-4.796-15.102-9.325-29.364-5.188-46.749c1.001-4.205,2.058-8.296,3.08-12.252
				c1.382-5.348,2.735-10.615,3.907-15.967h108.092c1.172,5.352,2.526,10.619,3.907,15.967c1.022,3.956,2.079,8.047,3.08,12.252
				c4.138,17.385-0.392,31.647-5.188,46.749c-3.656,11.514-7.438,23.42-7.438,36.994c0,25.332,20.608,45.94,45.939,45.94
				c12.271,0,23.808-4.778,32.484-13.455c0.024-0.024,0.048-0.049,0.071-0.072c20.501-21.064,36.072-45.806,46.281-73.536
				c8.171-22.196,12.672-45.901,13.495-70.839H497v110c-43.4,3.617-78.103,38.319-81.72,81.719H96.715
				c-0.527-6.345-1.713-12.601-3.566-18.672c-1.209-3.963-5.401-6.192-9.363-4.983c-3.962,1.209-6.193,5.4-4.984,9.362
				c1.42,4.652,2.366,9.437,2.851,14.293H65.034C37.445,484.805,15,462.359,15,434.771v-16.613
				c18.333,1.863,35.491,10.488,47.932,24.317c1.481,1.646,3.525,2.483,5.578,2.483c1.787,0,3.58-0.635,5.014-1.924
				c3.08-2.771,3.33-7.513,0.56-10.593C58.8,415.453,37.589,404.997,15,403.089V293.086H69.321z"/>
			<path d="M62.69,106.706c-12.378,0-22.448,10.069-22.448,22.447s10.07,22.448,22.448,22.448s22.448-10.07,22.448-22.448
				S75.068,106.706,62.69,106.706z M62.69,136.602c-4.107,0-7.448-3.341-7.448-7.448c0-4.106,3.341-7.447,7.448-7.447
				s7.448,3.341,7.448,7.447C70.139,133.261,66.797,136.602,62.69,136.602z"/>
			<path d="M62.69,55.601c-12.378,0-22.448,10.07-22.448,22.448s10.07,22.448,22.448,22.448s22.448-10.07,22.448-22.448
				C85.139,65.671,75.068,55.601,62.69,55.601z M62.69,85.497c-4.107,0-7.448-3.341-7.448-7.448s3.341-7.448,7.448-7.448
				s7.448,3.341,7.448,7.448C70.139,82.156,66.797,85.497,62.69,85.497z"/>
			<path d="M393.538,55.601c-12.378,0-22.448,10.07-22.448,22.448s10.07,22.448,22.448,22.448s22.448-10.07,22.448-22.448
				S405.916,55.601,393.538,55.601z M393.538,85.497c-4.107,0-7.448-3.341-7.448-7.448s3.341-7.448,7.448-7.448
				s7.448,3.341,7.448,7.448S397.645,85.497,393.538,85.497z"/>
			<path d="M118.462,55.601c-12.378,0-22.448,10.07-22.448,22.448s10.07,22.448,22.448,22.448c12.378,0,22.448-10.07,22.448-22.448
				S130.84,55.601,118.462,55.601z M118.462,85.497c-4.107,0-7.448-3.341-7.448-7.448s3.341-7.448,7.448-7.448
				c4.107,0,7.448,3.341,7.448,7.448C125.91,82.156,122.569,85.497,118.462,85.497z"/>
			<path d="M185.997,53.823c-12.111,0-21.964,9.853-21.964,21.964v55.077c0,12.111,9.853,21.964,21.964,21.964h69.981
				c0.005,0,0.01,0.001,0.015,0.001s0.01-0.001,0.015-0.001h69.995c12.111,0,21.964-9.852,21.964-21.964V75.787
				c0-12.111-9.853-21.964-21.964-21.964H185.997z M251.736,137.828h-41.631c3.598-22.091,22.804-39.009,45.895-39.009
				c6.007,0,11.745,1.157,17.021,3.24L251.736,137.828z M269.19,137.828l16.712-28.084c8.328,7.01,14.168,16.88,15.993,28.084
				H269.19z M332.967,75.787v55.077c0,3.84-3.124,6.964-6.964,6.964h-8.968c-2.038-16.674-10.766-31.302-23.42-41.115
				c1.641-3.456,0.412-7.657-2.942-9.653c-3.348-1.992-7.615-1.076-9.874,1.999c-7.592-3.359-15.978-5.24-24.8-5.24
				c-31.376,0-57.322,23.62-61.035,54.009h-8.968c-3.84,0-6.964-3.124-6.964-6.964V75.787c0-3.84,3.124-6.964,6.964-6.964h140.006
				C329.843,68.823,332.967,71.947,332.967,75.787z"/>
			<path d="M393.538,106.706c-12.378,0-22.448,10.069-22.448,22.447s10.07,22.448,22.448,22.448s22.448-10.07,22.448-22.448
				S405.916,106.706,393.538,106.706z M393.538,136.602c-4.107,0-7.448-3.341-7.448-7.448c0-4.106,3.341-7.447,7.448-7.447
				s7.448,3.341,7.448,7.447C400.986,133.261,397.645,136.602,393.538,136.602z"/>
			<path d="M449.31,55.601c-12.378,0-22.448,10.07-22.448,22.448s10.07,22.448,22.448,22.448s22.448-10.07,22.448-22.448
				C471.757,65.671,461.688,55.601,449.31,55.601z M449.31,85.497c-4.107,0-7.448-3.341-7.448-7.448s3.341-7.448,7.448-7.448
				s7.448,3.341,7.448,7.448C456.757,82.156,453.417,85.497,449.31,85.497z"/>
			<path d="M118.462,106.706c-12.378,0-22.448,10.069-22.448,22.447s10.07,22.448,22.448,22.448
				c12.378,0,22.448-10.07,22.448-22.448S130.84,106.706,118.462,106.706z M118.462,136.602c-4.107,0-7.448-3.341-7.448-7.448
				c0-4.106,3.341-7.447,7.448-7.447c4.107,0,7.448,3.341,7.448,7.447C125.91,133.261,122.569,136.602,118.462,136.602z"/>
			<path d="M449.31,106.706c-12.378,0-22.448,10.069-22.448,22.447s10.07,22.448,22.448,22.448s22.448-10.07,22.448-22.448
				S461.688,106.706,449.31,106.706z M449.31,136.602c-4.107,0-7.448-3.341-7.448-7.448c0-4.106,3.341-7.447,7.448-7.447
				s7.448,3.341,7.448,7.447C456.757,133.261,453.417,136.602,449.31,136.602z"/>
		</g>
	</g>
</g>
<g>
</g>
<g>
</g>
<g>
</g>
<g>
</g>
<g>
</g>
<g>
</g>
<g>
</g>
<g>
</g>
<g>
</g>
<g>
</g>
<g>
</g>
<g>
</g>
<g>
</g>
<g>
</g>
<g>
</g>
</svg>
