<svg viewBox="0 0 512 512" xmlns="http://www.w3.org/2000/svg" xmlns:xlink="http://www.w3.org/1999/xlink"><linearGradient id="a" gradientTransform="matrix(1 0 0 -1 0 -17294)" gradientUnits="userSpaceOnUse" x1="0" x2="512" y1="-17550" y2="-17550"><stop offset="0" stop-color="#00f38d"/><stop offset="1" stop-color="#009eff"/></linearGradient><path d="m512 256c0 141.386719-114.613281 256-256 256s-256-114.613281-256-256 114.613281-256 256-256 256 114.613281 256 256zm0 0" fill="url(#a)"/><path d="m417.480469 134.894531c-14.746094-15.90625-34.285157-25.757812-55.601563-28.226562-9.230468-21.488281-30.59375-36.574219-55.421875-36.574219-24.058593 0-45.792969 14.328125-55.375 36.5-.152343.355469-.277343.71875-.402343 1.078125-4.238282-.605469-8.535157-.917969-12.871094-.917969-49.6875 0-90.113282 40.425782-90.113282 90.117188 0 7.785156.984376 15.453125 2.941407 22.894531l-79.136719 84.671875v69.4375h86.066406v-32.976562h32.347656v-33.066407h21.078126l19.351562-21.152343c2.480469.203124 4.976562.308593 7.46875.308593 20.996094 0 41.113281-7.257812 57.21875-20.515625 2.566406 2.058594 5.230469 3.984375 8.007812 5.75l-.085937 115.65625 44.417969 51.605469 63.277344-58.640625-22.417969-24.1875 23.988281-22.230469-22.472656-24.253906 18.074218-16.75-.082031-26.660156c1.234375-1.089844 2.398438-2.175781 3.542969-3.25l1.355469-1.265625c36.445312-33.773438 38.621093-90.902344 4.84375-127.351563zm-111.023438-34.800781c8.40625 0 16.023438 3.445312 21.515625 8.996094-12.300781 3.292968-23.796875 9.203125-33.816406 17.464844-2.269531-1.820313-4.617188-3.539063-7.046875-5.132813-2.507813-1.640625-5.089844-3.140625-7.730469-4.515625 5.144532-10.265625 15.582032-16.8125 27.078125-16.8125zm-79.296875 155.953125-8.128906-1.449219-21.253906 23.234375h-37.863282v33.066407h-32.347656v32.976562h-26.066406v-27.601562l83.441406-89.273438-3.332031-8.746094c-2.597656-6.824218-3.914063-14.019531-3.914063-21.382812 0-33.148438 26.964844-60.117188 60.113282-60.117188 11.738281 0 23.105468 3.378906 32.871094 9.769532 1.285156.84375 2.53125 1.753906 3.753906 2.695312-4.316406 7.054688-7.628906 14.664062-9.847656 22.648438-2.519532-3.214844-6.375-5.347657-10.773438-5.515626-7.933594-.300781-14.613281 5.886719-14.914062 13.820313-.300782 7.933594 5.886718 14.609375 13.820312 14.914063 3.191406.117187 6.171875-.820313 8.621094-2.492188 0 .046875-.007813.089844-.007813.132812-.699219 18.375 4.117188 36.105469 13.710938 51.328126-10.578125 8.359374-23.628907 12.933593-37.234375 12.933593-3.574219-.003906-7.160156-.316406-10.648438-.941406zm165.085938-15.804687-1.460938 1.363281c-2.421875 2.265625-4.167968 3.902343-6.171875 5.191406l-6.921875 4.441406.089844 29.121094-30.429688 28.203125 22.472657 24.25-23.988281 22.234375 22.417968 24.1875-18.445312 17.09375-16.84375-19.570313.085937-122.585937-8.351562-4.136719c-6.546875-3.238281-12.402344-7.621094-17.410157-13.019531-10.914062-11.777344-16.589843-27.101563-15.976562-43.148437.609375-16.046876 7.429688-30.894532 19.210938-41.808594 7.535156-6.984375 16.523437-11.8125 26.222656-14.230469v39.992187c0 2.527344.628906 4.902344 1.730468 6.988282 2.09375 5.007812 6.933594 8.617187 12.710938 8.835937 6.085938.234375 11.421875-3.359375 13.71875-8.625 1.171875-2.136719 1.839844-4.589843 1.839844-7.199219v-39.792968c10.9375 2.867187 20.859375 8.769531 28.730468 17.261718 22.53125 24.3125 21.082032 62.425782-3.230468 84.953126zm0 0" fill="#fff"/></svg>