<svg height="512pt" viewBox="0 0 512 512" width="512pt" xmlns="http://www.w3.org/2000/svg" xmlns:xlink="http://www.w3.org/1999/xlink"><linearGradient id="a" gradientTransform="matrix(1 0 0 -1 0 -9462)" gradientUnits="userSpaceOnUse" x1="0" x2="512" y1="-9718" y2="-9718"><stop offset="0" stop-color="#00f38d"/><stop offset="1" stop-color="#009eff"/></linearGradient><path d="m512 256c0 141.386719-114.613281 256-256 256s-256-114.613281-256-256 114.613281-256 256-256 256 114.613281 256 256zm0 0" fill="url(#a)"/><path d="m428.230469 125.195312-42.484375-42.4375c-10.007813-10-26.285156-9.996093-36.289063.011719l-227.125 227.230469c-7.261719 7.25-12.804687 16.226562-16.03125 25.964844l-.222656.675781-20.285156 88.554687 88.632812-20.246093.675781-.222657c9.742188-3.222656 18.726563-8.757812 25.996094-16.015624l227.144532-227.25c4.84375-4.847657 7.511718-11.289063 7.507812-18.136719-.003906-6.847657-2.671875-13.289063-7.519531-18.128907zm-295.570313 229.757813 23.4375 23.410156-30.390625 6.941407zm51.113282 8.652344-36.332032-36.292969 185.667969-185.75 36.332031 36.292969zm206.875-206.96875-36.332032-36.292969 13.292969-13.300781 36.332031 36.292969zm0 0" fill="#fff"/></svg>