<?xml version="1.0" encoding="iso-8859-1"?>
<!-- Generator: Adobe Illustrator 19.0.0, SVG Export Plug-In . SVG Version: 6.00 Build 0)  -->
<svg version="1.1" id="Capa_1" xmlns="http://www.w3.org/2000/svg" xmlns:xlink="http://www.w3.org/1999/xlink" x="0px" y="0px"
	 viewBox="0 0 512 512" style="enable-background:new 0 0 512 512;" xml:space="preserve">
<linearGradient id="SVGID_1_" gradientUnits="userSpaceOnUse" x1="256" y1="514" x2="256" y2="2" gradientTransform="matrix(1 0 0 -1 0 514)">
	<stop  offset="0" style="stop-color:#2AF598"/>
	<stop  offset="1" style="stop-color:#009EFD"/>
</linearGradient>
<path style="fill:url(#SVGID_1_);" d="M40,472h472v40H0V0h40V472z M80,372c0-32.73,26.348-59.406,58.945-59.973l39.92-91.408
	C167.263,209.672,160,194.173,160,177c0-33.084,26.916-60,60-60s60,26.916,60,60c0,10.548-2.746,20.464-7.545,29.085l51.189,58.648
	C330.826,261.687,338.72,260,347,260c1.983,0,3.942,0.102,5.875,0.291l55.816-157.831C398.365,91.678,392,77.073,392,61
	c0-33.084,26.916-60,60-60s60,26.916,60,60s-26.916,60-60,60c-2.464,0-4.889-0.167-7.276-0.457L389.24,277.435
	C400.2,288.312,407,303.375,407,320c0,33.084-26.916,60-60,60s-60-26.916-60-60c0-10.222,2.576-19.852,7.103-28.284l-51.595-59.113
	C235.552,235.429,227.958,237,220,237c-1.535,0-3.051-0.077-4.558-0.191l-38.438,88.013C190.991,335.817,200,352.871,200,372
	c0,33.084-26.916,60-60,60S80,405.084,80,372z M432,61c0,11.028,8.972,20,20,20s20-8.972,20-20s-8.972-20-20-20S432,49.972,432,61z
	 M367,320c0-11.028-8.972-20-20-20s-20,8.972-20,20s8.972,20,20,20S367,331.028,367,320z M200,177c0,11.028,8.972,20,20,20
	s20-8.972,20-20s-8.972-20-20-20S200,165.972,200,177z M120,372c0,11.028,8.972,20,20,20s20-8.972,20-20s-8.972-20-20-20
	S120,360.972,120,372z"/>
<g>
</g>
<g>
</g>
<g>
</g>
<g>
</g>
<g>
</g>
<g>
</g>
<g>
</g>
<g>
</g>
<g>
</g>
<g>
</g>
<g>
</g>
<g>
</g>
<g>
</g>
<g>
</g>
<g>
</g>
</svg>
