<svg height="512pt" viewBox="0 0 512 512" width="512pt" xmlns="http://www.w3.org/2000/svg" xmlns:xlink="http://www.w3.org/1999/xlink"><linearGradient id="a" gradientTransform="matrix(1 0 0 -1 0 -22278)" gradientUnits="userSpaceOnUse" x1="0" x2="512" y1="-22534" y2="-22534"><stop offset="0" stop-color="#00f38d"/><stop offset="1" stop-color="#009eff"/></linearGradient><path d="m512 256c0 141.386719-114.613281 256-256 256s-256-114.613281-256-256 114.613281-256 256-256 256 114.613281 256 256zm0 0" fill="url(#a)"/><g fill="#fff"><path d="m369.78125 158.113281c0 11.796875-9.5625 21.359375-21.355469 21.359375-11.796875 0-21.359375-9.5625-21.359375-21.359375 0-11.792969 9.5625-21.355469 21.359375-21.355469 11.792969 0 21.355469 9.5625 21.355469 21.355469zm0 0"/><path d="m179.230469 421.378906h-88.730469v-79.941406l136.046875-136.046875c-1.710937-7.605469-2.574219-15.390625-2.574219-23.25 0-58.316406 47.445313-105.761719 105.765625-105.761719 58.316407 0 105.761719 47.445313 105.761719 105.761719 0 58.320313-47.445312 105.761719-105.761719 105.761719-7.859375 0-15.644531-.863282-23.25-2.570313l-23.929687 23.929688h-28.582032v37.371093h-37.375v37.375h-37.371093zm-58.730469-30h28.730469v-37.375h37.371093v-37.371094h37.375v-37.375h46.160157l27.746093-27.746093 8.714844 2.789062c7.460938 2.390625 15.246094 3.601563 23.140625 3.601563 41.777344 0 75.765625-33.984375 75.765625-75.761719s-33.988281-75.761719-75.765625-75.761719c-41.773437 0-75.761719 33.984375-75.761719 75.761719 0 7.894531 1.210938 15.683594 3.601563 23.140625l2.789063 8.714844-139.867188 139.867187zm0 0"/></g></svg>